<?xml version="1.0" encoding="UTF-8" standalone="no"?>
<svg xmlns="http://www.w3.org/2000/svg" version="1.0" width="654" height="390">
<title xml:lang="en">Empty ECG paper</title>
<path id="GridLarge"
d="M 27,15 H 627 V 375 H 27 V 15 Z
M 27,75 H 627 M 27,135 H 627 M 27,195 H 627 M 27,255 H 627 M 27,315 H 627
M 87,15 V 375 M 147,15 V 375 M 207,15 V 375 M 267,15 V 375 M 327,15 V 375 M 387,15 V 375 M 447,15 V 375 M 507,15 V 375 M 567,15 V 375"
fill="none" stroke="#e0816e" stroke-width="1.25px" stroke-linejoin="round"/>
<path id="GridSmall"
d="M 42,15 V 375 M 57,15 V 375 M 72,15 V 375
M 102,15 V 375 M 117,15 V 375 M 132,15 V 375
M 162,15 V 375 M 177,15 V 375 M 192,15 V 375
M 222,15 V 375 M 237,15 V 375 M 252,15 V 375
M 282,15 V 375 M 297,15 V 375 M 312,15 V 375
M 342,15 V 375 M 357,15 V 375 M 372,15 V 375
M 402,15 V 375 M 417,15 V 375 M 432,15 V 375
M 462,15 V 375 M 477,15 V 375 M 492,15 V 375
M 522,15 V 375 M 537,15 V 375 M 552,15 V 375
M 582,15 V 375 M 597,15 V 375 M 612,15 V 375
M 27,30 H 627 M 27,45 H 627 M 27,60 H 627
M 27,90 H 627 M 27,105 H 627 M 27,120 H 627
M 27,150 H 627 M 27,165 H 627 M 27,180 H 627
M 27,210 H 627 M 27,225 H 627 M 27,240 H 627
M 27,270 H 627 M 27,285 H 627 M 27,300 H 627
M 27,330 H 627 M 27,345 H 627 M 27,360 H 627"
fill="none" stroke="#e0816e" stroke-width="0.625px" />
</svg>